<?xml version="1.0" encoding="UTF-8" standalone="no"?>
<svg
   xmlns:dc="http://purl.org/dc/elements/1.1/"
   xmlns:cc="http://creativecommons.org/ns#"
   xmlns:rdf="http://www.w3.org/1999/02/22-rdf-syntax-ns#"
   xmlns:svg="http://www.w3.org/2000/svg"
   xmlns="http://www.w3.org/2000/svg"
   xmlns:sodipodi="http://sodipodi.sourceforge.net/DTD/sodipodi-0.dtd"
   xmlns:inkscape="http://www.inkscape.org/namespaces/inkscape"
   width="1024"
   height="500"
   id="svg4457"
   version="1.1"
   inkscape:version="0.91 r13725"
   sodipodi:docname="function_graphic.svg"
   inkscape:export-filename="/Users/holger/Seafile/devProjects/Android/Hacs/store/function_graphic.png"
   inkscape:export-xdpi="90"
   inkscape:export-ydpi="90">
  <metadata
     id="metadata4467">
    <rdf:RDF>
      <cc:Work
         rdf:about="">
        <dc:format>image/svg+xml</dc:format>
        <dc:type
           rdf:resource="http://purl.org/dc/dcmitype/StillImage" />
        <dc:title></dc:title>
      </cc:Work>
    </rdf:RDF>
  </metadata>
  <defs
     id="defs4465" />
  <sodipodi:namedview
     pagecolor="#ffffff"
     bordercolor="#666666"
     borderopacity="1"
     objecttolerance="10"
     gridtolerance="10"
     guidetolerance="10"
     inkscape:pageopacity="0"
     inkscape:pageshadow="2"
     inkscape:window-width="1640"
     inkscape:window-height="1005"
     id="namedview4463"
     showgrid="false"
     showborder="true"
     inkscape:snap-center="true"
     inkscape:zoom="0.58423259"
     inkscape:cx="297.71993"
     inkscape:cy="77.372815"
     inkscape:window-x="40"
     inkscape:window-y="0"
     inkscape:window-maximized="1"
     inkscape:current-layer="svg4457" />
  <text
     xml:space="preserve"
     style="font-style:normal;font-weight:normal;font-size:40px;line-height:125%;font-family:Sans;letter-spacing:0px;word-spacing:0px;fill:#000000;fill-opacity:1;stroke:none;stroke-width:1px;stroke-linecap:butt;stroke-linejoin:miter;stroke-opacity:1"
     x="151.90868"
     y="453.35764"
     id="text4469"
     sodipodi:linespacing="125%"><tspan
       sodipodi:role="line"
       id="tspan4471"
       x="151.90868"
       y="453.35764">Hackspace Access Control System</tspan></text>
  <g
     inkscape:groupmode="layer"
     id="layer3"
     inkscape:label="mainframe">
    <g
       id="g4476"
       transform="matrix(4.3641484,0,0,4.3641484,30.868798,-2007.3338)">
      <path
         inkscape:connector-curvature="0"
         id="path4459"
         d="m 112.974,479.32 14.554,0 0,-3.656 -18.193,0 0,18.278 3.64,0 0,-7.31 14.553,0 0,-3.658 -14.554,0 0,-3.654 z m 31.526,14.622 5.593,0 -8.54,-7.31 1.13,0 c 4.042,0 6.065,-1.83 6.065,-5.485 0,-3.654 -2.022,-5.482 -6.065,-5.482 l -12.13,0 0,3.657 11.523,0 c 2.022,0 3.032,0.61 3.032,1.827 0,1.22 -1.01,1.828 -3.032,1.828 l -11.522,0 0,3.655 5.41,0 8.537,7.31 z m 27.137,0 -7.897,-18.278 -3.952,0 -7.897,18.278 3.968,0 5.906,-13.684 5.92,13.684 3.953,0 z m 11.26,0 4.1,0 0,-0.013 5.227,-10.345 0,10.357 3.64,0 0,-18.277 -3.723,0 -7.192,14.22 -7.193,-14.22 -3.723,0 0,18.278 3.638,0 0,-10.345 5.227,10.345 z m 34.338,-3.657 -18.195,0 0,3.657 18.195,0 0,-3.658 z m -18.194,-3.653 18.195,0 0,-3.655 -18.196,0 0,3.655 z m 0,-7.31 18.195,0 0,-3.658 -18.196,0 0,3.656 z m -106.943,11.784 -3.52,-2.396 1.63,-2.302 0.47,0.32 0.326,-0.46 -0.47,-0.32 -0.703,-0.48 -0.47,-0.32 -0.325,0.46 0.47,0.32 -1.63,2.303 -3.52,-2.396 1.63,-2.3 0.47,0.32 2.118,-2.994 -0.47,-0.32 1.63,-2.302 3.52,2.396 -1.63,2.302 -0.47,-0.32 -0.326,0.46 1.642,1.12 0.325,-0.462 -0.47,-0.32 1.63,-2.3 3.52,2.395 -1.63,2.302 -0.47,-0.32 -2.118,2.992 0.47,0.32 -1.63,2.302 z m -5.375,1.55 0.535,0.256 0.558,0.21 0.157,-0.03 0.116,-0.146 0.07,-0.182 0.094,-0.172 0.105,-0.162 0.123,-0.15 0.184,-0.138 0.203,-0.088 0.21,-0.034 0.205,0.022 0.196,0.063 0.174,0.12 0.15,0.16 0.113,0.202 0.045,0.186 0.03,0.19 0.01,0.196 -0.012,0.196 0.042,0.18 0.13,0.088 0.595,0.04 0.598,-0.017 0.13,-0.082 0.048,-0.183 -0.005,-0.197 0.016,-0.192 0.036,-0.19 0.055,-0.186 0.118,-0.198 0.15,-0.153 0.182,-0.11 0.2,-0.062 0.207,-0.01 0.207,0.04 0.197,0.09 0.183,0.146 0.114,0.155 0.1,0.17 0.083,0.174 0.068,0.18 0.11,0.156 0.152,0.034 0.566,-0.19 0.544,-0.243 0.09,-0.126 -0.023,-0.182 -0.082,-0.18 -0.06,-0.185 -0.042,-0.19 -0.025,-0.188 0.036,-0.23 0.08,-0.198 0.12,-0.17 0.164,-0.13 0.184,-0.09 0.21,-0.04 0.222,0.012 0.22,0.065 0.17,0.1 0.154,0.115 0.147,0.133 0.134,0.144 0.16,0.1 0.154,-0.026 0.45,-0.386 0.408,-0.43 0.034,-0.15 -0.095,-0.16 -0.144,-0.136 -0.126,-0.146 -0.113,-0.156 -0.09,-0.17 -0.063,-0.224 -0.002,-0.212 0.045,-0.204 0.1,-0.18 0.136,-0.154 0.18,-0.114 0.203,-0.072 0.235,-0.022 0.193,0.03 0.192,0.044 0.183,0.066 0.18,0.084 0.187,0.03 0.13,-0.08 0.267,-0.525 0.21,-0.548 -0.027,-0.154 -0.15,-0.114 -0.186,-0.068 -0.176,-0.092 -0.164,-0.1 -0.155,-0.123 -0.14,-0.18 -0.09,-0.2 -0.033,-0.206 0.02,-0.2 0.065,-0.193 0.12,-0.168 0.165,-0.147 0.206,-0.113 0.19,-0.042 0.195,-0.028 0.198,-0.01 0.2,0.012 0.182,-0.042 0.09,-0.127 0.042,-0.583 -0.017,-0.587 -0.085,-0.128 -0.187,-0.046 -0.198,0.006 -0.197,-0.017 -0.195,-0.035 -0.186,-0.053 -0.203,-0.116 -0.156,-0.15 -0.11,-0.176 -0.064,-0.195 -0.01,-0.205 0.04,-0.204 0.095,-0.194 0.148,-0.18 0.157,-0.11 0.17,-0.1 0.178,-0.083 0.19,-0.066 0.156,-0.107 0.036,-0.15 -0.194,-0.555 -0.247,-0.532 -0.13,-0.088 -0.186,0.023 -0.183,0.08 -0.188,0.058 -0.194,0.04 -0.194,0.025 -0.232,-0.034 -0.205,-0.082 -0.173,-0.118 -0.13,-0.157 -0.092,-0.18 -0.042,-0.206 0.013,-0.217 0.066,-0.217 0.1,-0.168 0.118,-0.15 0.132,-0.147 0.15,-0.13 0.1,-0.155 -0.028,-0.153 -0.394,-0.442 -0.435,-0.398 -0.15,-0.032 -0.167,0.092 -0.138,0.143 -0.144,0.116 -0.164,0.11 -0.17,0.094 -0.23,0.06 -0.215,0.003 -0.21,-0.045 -0.182,-0.098 -0.157,-0.133 -0.116,-0.176 -0.073,-0.2 -0.02,-0.23 0.024,-0.192 0.05,-0.188 0.068,-0.178 0.087,-0.177 0.032,-0.184 -0.086,-0.13 -0.536,-0.262 -0.555,-0.205 -0.157,0.027 -0.114,0.146 -0.076,0.182 -0.09,0.174 -0.104,0.16 -0.123,0.152 -0.186,0.136 -0.202,0.088 -0.21,0.034 -0.204,-0.02 -0.196,-0.064 -0.177,-0.12 -0.146,-0.16 -0.114,-0.2 -0.044,-0.186 -0.027,-0.192 -0.01,-0.194 0.012,-0.196 -0.043,-0.18 -0.13,-0.087 -0.597,-0.04 -0.597,0.017 -0.13,0.084 -0.047,0.184 0,0.194 -0.02,0.193 -0.03,0.194 -0.055,0.183 -0.12,0.2 -0.152,0.153 -0.18,0.107 -0.198,0.064 -0.21,0.01 -0.208,-0.04 -0.198,-0.092 -0.183,-0.145 -0.116,-0.153 -0.1,-0.167 -0.083,-0.174 -0.066,-0.186 -0.11,-0.156 -0.15,-0.034 -0.567,0.19 -0.544,0.242 -0.09,0.127 0.024,0.183 0.08,0.18 0.062,0.185 0.04,0.19 0.026,0.188 -0.036,0.23 -0.082,0.202 -0.12,0.17 -0.16,0.127 -0.185,0.09 -0.21,0.04 -0.223,-0.01 -0.22,-0.067 -0.17,-0.098 -0.156,-0.116 -0.148,-0.13 -0.13,-0.148 -0.16,-0.097 -0.158,0.03 -0.448,0.385 -0.412,0.425 -0.03,0.15 0.095,0.16 0.14,0.135 0.13,0.148 0.11,0.16 0.095,0.168 0.06,0.225 0.004,0.212 -0.048,0.205 -0.1,0.18 -0.136,0.154 -0.178,0.113 -0.205,0.07 -0.234,0.02 -0.197,-0.023 -0.188,-0.05 -0.187,-0.067 -0.178,-0.083 -0.186,-0.03 -0.134,0.08 -0.263,0.53 -0.214,0.547 0.03,0.15 0.15,0.114 0.185,0.072 0.178,0.09 0.165,0.1 0.156,0.12 0.14,0.182 0.09,0.2 0.033,0.208 -0.022,0.2 -0.068,0.196 -0.12,0.17 -0.162,0.142 -0.206,0.113 -0.19,0.045 -0.194,0.028 -0.2,0.01 -0.198,-0.012 -0.183,0.043 -0.09,0.127 -0.043,0.584 0.018,0.586 0.085,0.13 0.187,0.045 0.197,0 0.197,0.016 0.197,0.033 0.188,0.05 0.202,0.117 0.156,0.15 0.112,0.177 0.064,0.196 0.008,0.203 -0.04,0.205 -0.093,0.193 -0.148,0.18 -0.157,0.114 -0.173,0.097 -0.177,0.082 -0.186,0.068 -0.16,0.107 -0.033,0.15 0.192,0.555 0.246,0.535 0.13,0.088 0.185,-0.024 0.184,-0.08 0.19,-0.06 0.192,-0.04 0.193,-0.023 0.232,0.035 0.203,0.08 0.177,0.12 0.13,0.16 0.09,0.178 0.042,0.205 -0.013,0.217 -0.064,0.218 -0.103,0.167 -0.12,0.152 -0.133,0.144 -0.147,0.13 -0.1,0.158 0.027,0.153 0.39,0.436 0.437,0.406 0.155,0.028 0.163,-0.092 0.137,-0.14 0.15,-0.127 0.16,-0.11 0.175,-0.093 0.227,-0.06 0.216,-0.003 0.21,0.046 0.182,0.097 0.157,0.134 0.116,0.176 0.07,0.2 0.026,0.23 -0.03,0.19 -0.048,0.19 -0.07,0.182 -0.085,0.174 -0.03,0.182 0.08,0.132 0.003,-0.005 z" />
      <path
         inkscape:connector-curvature="0"
         id="path4461"
         d="m 87.874,495.926 c -4.922,-1.333 -8.554,-5.836 -8.554,-11.174 0,-5.338 3.632,-9.84 8.554,-11.174 l 0,-3.03 c -6.56,1.396 -11.498,7.234 -11.498,14.206 0,6.97 4.938,12.808 11.498,14.203 l 0,-3.028 z m 5.824,-25.422 0,3.015 c 5.035,1.256 8.777,5.814 8.777,11.233 0,5.42 -3.742,9.977 -8.777,11.233 l 0,3.016 c 6.67,-1.31 11.72,-7.2 11.72,-14.248 0,-7.05 -5.05,-12.94 -11.72,-14.248 z m -83.832,22.985 4.1,0 0,-0.013 5.227,-10.345 0,10.357 3.64,0 0,-18.278 -3.725,0 -7.192,14.22 -7.193,-14.22 -3.723,0 0,18.278 3.638,0 0,-10.346 5.228,10.347 z m 35.124,0 -7.896,-18.278 -3.954,0 -7.896,18.278 3.967,0 5.909,-13.685 5.918,13.685 3.954,0 z m 6.028,-18.278 -3.64,0 0,18.278 3.64,0 0,-18.278 z m 17.706,18.278 3.7,0 0,-18.278 -3.64,0 0,12.733 -10.841,-12.733 -3.71,0 0,18.278 3.638,0 0,-12.733 10.854,12.733 z" />
    </g>
  </g>
  <flowRoot
     xml:space="preserve"
     id="flowRoot4480"
     style="font-style:normal;font-variant:normal;font-weight:bold;font-stretch:normal;font-size:90.00245114px;line-height:125%;font-family:Sans;-inkscape-font-specification:'Sans, Bold';text-align:start;letter-spacing:0px;word-spacing:0px;writing-mode:lr;text-anchor:start;fill:#000000;fill-opacity:1;stroke:none;stroke-width:1px;stroke-linecap:butt;stroke-linejoin:miter;stroke-opacity:1;"
     transform="matrix(2.250772,0,0,2.250772,-237.13426,-323.47209)"><flowRegion
       id="flowRegion4482"><rect
         id="rect4484"
         width="564.84351"
         height="118.10365"
         x="191.70447"
         y="212.4433"
         style="font-style:normal;font-variant:normal;font-weight:bold;font-stretch:normal;font-size:90.00245114px;line-height:125%;font-family:Sans;-inkscape-font-specification:'Sans, Bold';text-align:start;writing-mode:lr;text-anchor:start;" /></flowRegion><flowPara
       id="flowPara4486">HACS</flowPara></flowRoot></svg>
