<?xml version="1.0" encoding="UTF-8" standalone="no"?>
<svg
   xmlns:dc="http://purl.org/dc/elements/1.1/"
   xmlns:cc="http://creativecommons.org/ns#"
   xmlns:rdf="http://www.w3.org/1999/02/22-rdf-syntax-ns#"
   xmlns:svg="http://www.w3.org/2000/svg"
   xmlns="http://www.w3.org/2000/svg"
   xmlns:sodipodi="http://sodipodi.sourceforge.net/DTD/sodipodi-0.dtd"
   xmlns:inkscape="http://www.inkscape.org/namespaces/inkscape"
   width="30"
   height="30"
   id="svg4186"
   version="1.1"
   inkscape:version="0.91 r13725"
   sodipodi:docname="logo.svg"
   inkscape:export-filename="/Users/holger/Seafile/devProjects/Android/Hacs/store/logo.png"
   inkscape:export-xdpi="1536"
   inkscape:export-ydpi="1536">
  <metadata
     id="metadata4196">
    <rdf:RDF>
      <cc:Work
         rdf:about="">
        <dc:format>image/svg+xml</dc:format>
        <dc:type
           rdf:resource="http://purl.org/dc/dcmitype/StillImage" />
        <dc:title></dc:title>
      </cc:Work>
    </rdf:RDF>
  </metadata>
  <defs
     id="defs4194" />
  <sodipodi:namedview
     pagecolor="#ffffff"
     bordercolor="#666666"
     borderopacity="1"
     objecttolerance="10"
     gridtolerance="10"
     guidetolerance="10"
     inkscape:pageopacity="0"
     inkscape:pageshadow="2"
     inkscape:window-width="1640"
     inkscape:window-height="1005"
     id="namedview4192"
     showgrid="false"
     inkscape:zoom="20.876578"
     inkscape:cx="12.70386"
     inkscape:cy="14.234403"
     inkscape:window-x="40"
     inkscape:window-y="0"
     inkscape:window-maximized="1"
     inkscape:current-layer="svg4186"
     fit-margin-top="0"
     fit-margin-left="0"
     fit-margin-right="0"
     fit-margin-bottom="0" />
  <path
     d="m 11.977006,26.254392 c -4.9220003,-1.333 -8.5540003,-5.836 -8.5540003,-11.174 0,-5.338 3.632,-9.8399997 8.5540003,-11.1739997 l 0,-3.03 c -6.5600003,1.396 -11.49800028,7.234 -11.49800028,14.2059997 0,6.97 4.93799998,12.808 11.49800028,14.203 l 0,-3.028 z"
     id="path4208"
     inkscape:connector-curvature="0" />
  <path
     d="m 17.801006,0.8323923 0,3.015 c 5.035,1.256 8.777,5.8139997 8.777,11.2329997 0,5.42 -3.742,9.977 -8.777,11.233 l 0,3.016 c 6.67,-1.31 11.72,-7.2 11.72,-14.248 0,-7.0499997 -5.05,-12.9399997 -11.72,-14.2479997 z"
     id="path4206"
     inkscape:connector-curvature="0" />
  <g
     inkscape:groupmode="layer"
     id="layer1"
     inkscape:label="Layer 1"
     style="display:inline"
     transform="translate(-76.376,0.50300026)">
    <path
       d="m 86.723,23.152 0.535,0.256 0.558,0.21 0.157,-0.03 0.116,-0.146 0.07,-0.182 0.094,-0.172 0.105,-0.162 0.123,-0.15 0.184,-0.138 0.203,-0.088 0.21,-0.034 0.205,0.022 0.196,0.063 0.174,0.12 0.15,0.16 0.113,0.202 0.045,0.186 0.03,0.19 0.01,0.196 -0.012,0.196 0.042,0.18 0.13,0.088 0.595,0.04 0.598,-0.017 0.13,-0.082 0.048,-0.183 -0.005,-0.197 0.016,-0.192 0.036,-0.19 0.055,-0.186 0.118,-0.198 0.15,-0.153 0.182,-0.11 0.2,-0.062 0.207,-0.01 0.207,0.04 0.197,0.09 0.183,0.146 0.114,0.155 0.1,0.17 0.083,0.174 0.068,0.18 0.11,0.156 0.152,0.034 0.566,-0.19 0.544,-0.243 0.09,-0.126 -0.023,-0.182 -0.082,-0.18 -0.06,-0.185 -0.042,-0.19 -0.025,-0.188 0.036,-0.23 0.08,-0.198 0.12,-0.17 0.164,-0.13 0.184,-0.09 0.21,-0.04 0.222,0.012 0.22,0.065 0.17,0.1 0.154,0.115 0.147,0.133 0.134,0.144 0.16,0.1 0.154,-0.026 0.45,-0.386 0.408,-0.43 0.034,-0.15 -0.095,-0.16 -0.144,-0.136 -0.126,-0.146 -0.113,-0.156 -0.09,-0.17 -0.063,-0.224 -0.002,-0.212 0.045,-0.204 0.1,-0.18 0.136,-0.154 0.18,-0.114 0.203,-0.072 0.235,-0.022 0.193,0.03 0.192,0.044 0.183,0.066 0.18,0.084 0.187,0.03 0.13,-0.08 0.267,-0.525 0.21,-0.548 -0.027,-0.154 -0.15,-0.114 -0.186,-0.068 -0.176,-0.092 -0.164,-0.1 -0.155,-0.123 -0.14,-0.18 -0.09,-0.2 -0.033,-0.206 0.02,-0.2 0.065,-0.193 0.12,-0.168 0.165,-0.147 0.206,-0.113 0.19,-0.042 0.195,-0.028 0.198,-0.01 0.2,0.012 0.182,-0.042 0.09,-0.127 0.042,-0.583 -0.017,-0.587 -0.085,-0.128 -0.187,-0.046 -0.198,0.006 -0.197,-0.017 -0.195,-0.035 -0.186,-0.053 -0.203,-0.116 -0.156,-0.15 -0.11,-0.176 -0.064,-0.195 -0.01,-0.205 0.04,-0.204 0.095,-0.194 0.148,-0.18 0.157,-0.11 0.17,-0.1 0.178,-0.083 0.19,-0.066 0.156,-0.107 0.036,-0.15 -0.194,-0.555 -0.247,-0.532 -0.13,-0.088 -0.186,0.023 -0.183,0.08 -0.188,0.058 -0.194,0.04 -0.194,0.025 -0.232,-0.034 -0.205,-0.082 -0.173,-0.118 -0.13,-0.157 -0.092,-0.18 -0.042,-0.206 0.013,-0.217 0.066,-0.217 0.1,-0.168 0.118,-0.15 0.132,-0.147 0.15,-0.13 0.1,-0.155 -0.028,-0.153 -0.394,-0.442 -0.435,-0.398 -0.15,-0.032 -0.167,0.092 -0.138,0.143 -0.144,0.116 -0.164,0.11 -0.17,0.094 -0.23,0.06 L 95.696,9.119 95.486,9.074 95.304,8.976 95.147,8.843 95.031,8.667 94.958,8.467 94.938,8.237 94.962,8.045 95.012,7.857 95.08,7.679 95.167,7.502 95.199,7.318 95.113,7.188 94.577,6.926 94.022,6.721 93.865,6.748 93.751,6.894 93.675,7.076 93.585,7.25 93.481,7.41 93.358,7.562 93.172,7.698 92.97,7.786 92.76,7.82 92.556,7.8 92.36,7.736 92.183,7.616 92.037,7.456 91.923,7.256 91.879,7.07 91.852,6.878 l -0.01,-0.194 0.012,-0.196 -0.043,-0.18 -0.13,-0.087 -0.597,-0.04 -0.597,0.017 -0.13,0.084 -0.047,0.184 0,0.194 -0.02,0.193 -0.03,0.194 -0.055,0.183 -0.12,0.2 -0.152,0.153 -0.18,0.107 -0.198,0.064 -0.21,0.01 L 89.137,7.724 88.939,7.632 88.756,7.487 88.64,7.334 88.54,7.167 88.457,6.993 88.391,6.807 l -0.11,-0.156 -0.15,-0.034 -0.567,0.19 -0.544,0.242 -0.09,0.127 0.024,0.183 0.08,0.18 0.062,0.185 0.04,0.19 0.026,0.188 -0.036,0.23 -0.082,0.202 -0.12,0.17 -0.16,0.127 -0.185,0.09 -0.21,0.04 L 86.146,8.951 85.926,8.884 85.756,8.786 85.6,8.67 85.452,8.54 l -0.13,-0.148 -0.16,-0.097 -0.158,0.03 -0.448,0.385 -0.412,0.425 -0.03,0.15 0.095,0.16 0.14,0.135 0.13,0.148 0.11,0.16 0.095,0.168 0.06,0.225 0.004,0.212 -0.048,0.205 -0.1,0.18 -0.136,0.154 -0.178,0.113 -0.205,0.07 -0.234,0.02 -0.197,-0.023 -0.188,-0.05 -0.187,-0.067 -0.178,-0.083 -0.186,-0.03 -0.134,0.08 -0.263,0.53 -0.214,0.547 0.03,0.15 0.15,0.114 0.185,0.072 0.178,0.09 0.165,0.1 0.156,0.12 0.14,0.182 0.09,0.2 0.033,0.208 -0.022,0.2 -0.068,0.196 -0.12,0.17 -0.162,0.142 -0.206,0.113 -0.19,0.045 -0.194,0.028 -0.2,0.01 -0.198,-0.012 -0.183,0.043 -0.09,0.127 -0.043,0.584 0.018,0.586 0.085,0.13 0.187,0.045 0.197,0 0.197,0.016 0.197,0.033 0.188,0.05 0.202,0.117 0.156,0.15 0.112,0.177 0.064,0.196 0.008,0.203 -0.04,0.205 -0.093,0.193 -0.148,0.18 -0.157,0.114 -0.173,0.097 -0.177,0.082 -0.186,0.068 -0.16,0.107 -0.033,0.15 0.192,0.555 0.246,0.535 0.13,0.088 0.185,-0.024 0.184,-0.08 0.19,-0.06 0.192,-0.04 0.193,-0.023 0.232,0.035 0.203,0.08 0.177,0.12 0.13,0.16 0.09,0.178 0.042,0.205 -0.013,0.217 -0.064,0.218 -0.103,0.167 -0.12,0.152 -0.133,0.144 -0.147,0.13 -0.1,0.158 0.027,0.153 0.39,0.436 0.437,0.406 0.155,0.028 0.163,-0.092 0.137,-0.14 0.15,-0.127 0.16,-0.11 0.175,-0.093 0.227,-0.06 0.216,-0.003 0.21,0.046 0.182,0.097 0.157,0.134 0.116,0.176 0.07,0.2 0.026,0.23 -0.03,0.19 -0.048,0.19 -0.07,0.182 -0.085,0.174 -0.03,0.182 0.08,0.132 0.003,-0.005 z"
       id="path4188"
       inkscape:connector-curvature="0" />
  </g>
  <g
     inkscape:groupmode="layer"
     id="layer2"
     inkscape:label="Layer 2"
     transform="translate(-76.376,0.50300026)">
    <path
       d="m 92.098,21.602 -3.52,-2.396 1.63,-2.302 0.47,0.32 0.326,-0.46 -0.47,-0.32 -0.703,-0.48 -0.47,-0.32 -0.325,0.46 0.47,0.32 -1.63,2.303 -3.52,-2.396 1.63,-2.3 0.47,0.32 2.118,-2.994 -0.47,-0.32 1.63,-2.302 3.52,2.396 -1.63,2.302 -0.47,-0.32 -0.326,0.46 1.642,1.12 0.325,-0.462 -0.47,-0.32 1.63,-2.3 3.52,2.395 -1.63,2.302 -0.47,-0.32 -2.118,2.992 0.47,0.32 -1.63,2.302 z"
       id="path4212"
       style="fill:#ffffff;fill-opacity:1;stroke:none;stroke-opacity:1"
       inkscape:connector-curvature="0" />
  </g>
</svg>
